<?xml version="1.0" standalone="no"?>
<!DOCTYPE svg PUBLIC "-//W3C//DTD SVG 20010904//EN"
 "http://www.w3.org/TR/2001/REC-SVG-20010904/DTD/svg10.dtd">
<svg version="1.0" xmlns="http://www.w3.org/2000/svg"
 width="24.000000pt" height="24.000000pt" viewBox="0 0 24.000000 24.000000"
 preserveAspectRatio="xMidYMid meet">

<g transform="translate(0.000000,24.000000) scale(0.100000,-0.100000)"
fill="#000000" stroke="none">
<path d="M56 189 c-14 -11 -26 -27 -26 -35 0 -9 -5 -12 -12 -8 -7 4 -8 3 -4
-5 11 -17 31 -8 31 15 0 12 13 26 35 36 19 10 28 18 19 18 -9 0 -28 -9 -43
-21z"/>
<path d="M146 200 c12 -4 31 -21 43 -36 11 -14 21 -21 21 -15 0 19 -47 61 -67
60 -15 0 -15 -2 3 -9z"/>
<path d="M97 163 c-23 -22 14 -53 39 -32 14 11 8 39 -8 39 -6 0 -6 -6 1 -14 8
-10 9 -16 1 -21 -15 -9 -32 5 -26 21 6 15 3 18 -7 7z"/>
<path d="M82 98 c-7 -7 -12 -20 -12 -30 0 -25 -17 -23 -25 3 -4 11 -9 19 -11
16 -10 -10 10 -39 37 -52 45 -24 77 -19 115 19 18 18 36 31 40 27 4 -3 4 0 0
7 -10 17 -39 15 -33 -3 9 -21 -47 -57 -80 -53 -24 3 -28 8 -28 33 0 22 4 30
17 29 10 -1 15 2 12 7 -7 12 -18 11 -32 -3z"/>
<path d="M143 99 c9 -5 17 -18 18 -27 0 -11 2 -12 6 -4 6 15 -14 42 -31 42 -6
0 -3 -5 7 -11z"/>
<path d="M110 70 c0 -5 5 -10 11 -10 5 0 7 5 4 10 -3 6 -8 10 -11 10 -2 0 -4
-4 -4 -10z"/>
</g>
</svg>
